<?xml version="1.0" encoding="utf-8"?>
<!-- Generator: Adobe Illustrator 20.1.0, SVG Export Plug-In . SVG Version: 6.00 Build 0)  -->
<svg version="1.1" id="Layer_1" xmlns="http://www.w3.org/2000/svg" xmlns:xlink="http://www.w3.org/1999/xlink" x="0px" y="0px"
	 viewBox="0 0 381 52" style="enable-background:new 0 0 381 52;" xml:space="preserve">
<style type="text/css">
	.st0{fill:#FAF7FF;}
</style>
<title>Combined Shape</title>
<desc>Created with Sketch.</desc>
<g id="Page-2">
	<g id="Podia-Homepage-Copy-2" transform="translate(-339.000000, -935.000000)">
		<g id="Combined-Shape" transform="translate(339.000000, 935.000000)">
			<g id="Mask">
			</g>
			<path class="st0" d="M387,26.3c0-14.1,0-28.2,0-42.2c0-5.5-8.6-7-9.8-1.3c-1.2,5.7-2.3,11.4-3.1,17.1
				C289.3,1.9,278.5,42,181.3,42C84.2,42,86.1,2,6.7-0.1c0.9-5.2,2.1-10.4,3.5-15.6c1.4-5.1-4.7-8-8.4-4.9c-1.2,1-2.1,2.1-2.8,3.3
				c-0.5-6-10-5.8-10,0.5c0,22.8,0,45.6,0.1,68.4c0,4,3.7,5.5,6.6,4.5c1.9,4.7,9.2,4.5,9.6-1.5c0.1-0.9,0.1-1.8,0.2-2.6h371.7
				c0,1.1,0,2.3,0,3.4c0,0.7,0,1.4,0,2.1c-1.4,6.4-2.4,12.9-3.1,19.5c-0.6,6,7.9,6.2,9.8,1.3c2.7-6.8,3.5-14.2,3.6-21.8
				c2-8.5,4.7-16.8,8.1-24.9C398,25.9,389.7,20.8,387,26.3z"/>
		</g>
	</g>
</g>
</svg>
