<?xml version="1.0" encoding="iso-8859-1"?>
<!-- Generator: Adobe Illustrator 19.0.0, SVG Export Plug-In . SVG Version: 6.00 Build 0)  -->
<svg version="1.1" id="Capa_1" xmlns="http://www.w3.org/2000/svg" xmlns:xlink="http://www.w3.org/1999/xlink" x="0px" y="0px"
	 viewBox="0 0 512 512" style="enable-background:new 0 0 512 512;" xml:space="preserve">
<path style="fill:#89ce94;" d="M504,36.01H184c-4.418,0-8,3.582-8,8v264c0,4.418,3.582,8,8,8h174.708l59.94,53.946
	c5.056,4.552,13.352,0.819,13.352-5.946v-48h72c4.418,0,8-3.582,8-8v-264C512,39.592,508.418,36.01,504,36.01z"/>
<path style="fill:#4fc662;" d="M374.708,300.01H200c-4.418,0-8-3.582-8-8v-256h-8c-4.418,0-8,3.582-8,8v264c0,4.418,3.582,8,8,8
	h174.708l59.94,53.946c5.056,4.551,13.352,0.819,13.352-5.946v-12.438L374.708,300.01z"/>
<g>
	<path style="fill:#EEEBEA;" d="M448,132.01H240c-4.418,0-8-3.582-8-8s3.582-8,8-8h208c4.418,0,8,3.582,8,8
		S452.418,132.01,448,132.01z"/>
	<path style="fill:#EEEBEA;" d="M448,188.01H240c-4.418,0-8-3.582-8-8s3.582-8,8-8h208c4.418,0,8,3.582,8,8
		S452.418,188.01,448,188.01z"/>
	<path style="fill:#EEEBEA;" d="M448,244.01H240c-4.418,0-8-3.582-8-8s3.582-8,8-8h208c4.418,0,8,3.582,8,8
		S452.418,244.01,448,244.01z"/>
	<path style="fill:#EEEBEA;" d="M168,148.01c-92.636,0-168,64.598-168,144c0,30.183,10.762,59.072,31.123,83.544
		c18.1,21.755,42.507,38.568,70.946,48.949L88.411,465.48c-0.992,2.975-0.112,6.341,2.21,8.449c2.724,2.474,6.907,2.754,9.933,0.658
		l56.194-38.904c3.791,0.217,7.564,0.326,11.252,0.326c92.636,0,168-64.598,168-144S260.636,148.01,168,148.01z"/>
</g>
<path style="fill:#D8D7DD;" d="M120.411,457.5l13.659-40.977c-28.439-10.381-52.846-27.194-70.946-48.949
	C42.762,343.102,32,314.213,32,284.03c0-60.436,43.666-112.288,105.372-133.614C59.311,162.792,0,221.572,0,292.01
	c0,30.183,10.762,59.072,31.123,83.544c18.1,21.755,42.507,38.568,70.946,48.949L88.411,465.48c-0.992,2.975-0.112,6.341,2.21,8.449
	c2.724,2.474,6.907,2.754,9.933,0.658l19.534-13.524C119.93,459.881,120.023,458.662,120.411,457.5z"/>
<g>
	<circle style="fill:#89889A;" cx="168" cy="292.01" r="24"/>
	<circle style="fill:#89889A;" cx="256" cy="292.01" r="24"/>
	<circle style="fill:#89889A;" cx="80" cy="292.01" r="24"/>
</g>
<g>
</g>
<g>
</g>
<g>
</g>
<g>
</g>
<g>
</g>
<g>
</g>
<g>
</g>
<g>
</g>
<g>
</g>
<g>
</g>
<g>
</g>
<g>
</g>
<g>
</g>
<g>
</g>
<g>
</g>
</svg>
