<?xml version="1.0"?>
<svg xmlns="http://www.w3.org/2000/svg" xmlns:xlink="http://www.w3.org/1999/xlink" version="1.1" id="Capa_1" x="0px" y="0px" viewBox="0 0 512 512" style="enable-background:new 0 0 512 512;" xml:space="preserve" width="512px" height="512px" class=""><g><path style="fill:#7DC8FF;" d="M359.018,357.473V512h30.905c16.998,0,30.905-13.907,30.905-30.905v-61.811L359.018,357.473z" data-original="#7DC8FF" class=""/><path style="fill:#BAE2FF;" d="M389.924,357.473v123.622c0,16.998-13.907,30.905-30.905,30.905H122.076  c-16.998,0-30.905-13.907-30.905-30.905v-61.811L389.924,357.473z" data-original="#BAE2FF"/><path style="fill:#7DC8FF;" d="M389.924,0h-30.905v123.622l61.811-61.811V30.905C420.829,13.907,406.922,0,389.924,0z" data-original="#7DC8FF" class=""/><path style="fill:#BAE2FF;" d="M389.924,30.905v92.716L91.171,61.811V30.905C91.171,13.907,105.078,0,122.076,0h236.942  C376.016,0,389.924,13.907,389.924,30.905z" data-original="#BAE2FF"/><polygon style="fill:#CF391B;" points="389.924,419.284 420.829,419.284 420.829,61.811 389.924,61.811 328.113,240.547 " data-original="#CF391B"/><rect x="91.171" y="61.811" style="fill:#FF4C28;" width="298.753" height="357.473" data-original="#FF4C28"/><circle style="fill:#FFFFFF;" cx="256" cy="465.642" r="15.453" data-original="#FFFFFF"/><path style="fill:#FF947E;" d="M359.018,234.366H152.982c-17.069,0-30.905,13.837-30.905,30.905  c0,17.069,13.836,30.905,30.905,30.905h206.036c17.069,0,30.905-13.836,30.905-30.905  C389.924,248.204,376.087,234.366,359.018,234.366z" data-original="#FF947E"/><path style="fill:#FFB8A9;" d="M304.529,151.205h-97.057c-32.427,17.35-54.489,51.54-54.489,90.888v46.358  c0,56.896,46.123,103.018,103.018,103.018s103.018-46.122,103.018-103.018v-46.358C359.018,202.745,336.956,168.555,304.529,151.205  z" data-original="#FFB8A9"/><path style="fill:#85493D;" d="M256,185.433c22.385,0,41.426-14.282,48.529-34.228c-14.461-7.738-30.981-12.13-48.529-12.13  s-34.068,4.393-48.529,12.13C214.574,171.15,233.616,185.433,256,185.433z" data-original="#85493D" class=""/><g>
	<path style="fill:#2E130F;" d="M286.905,275.573c-4.268,0-7.726-3.459-7.726-7.726v-5.151c0-4.267,3.458-7.726,7.726-7.726h20.604   c4.268,0,7.726,3.459,7.726,7.726s-3.458,7.726-7.726,7.726h-13.317C293.132,273.423,290.27,275.573,286.905,275.573z" data-original="#2E130F"/>
	<path style="fill:#2E130F;" d="M225.095,275.573c-3.365,0-6.226-2.15-7.286-5.151h-13.317c-4.267,0-7.726-3.459-7.726-7.726   s3.459-7.726,7.726-7.726h20.604c4.267,0,7.726,3.459,7.726,7.726v5.151C232.821,272.114,229.362,275.573,225.095,275.573z" data-original="#2E130F"/>
</g><g>
	<path style="fill:#FFFFFF;" d="M183.887,92.716c-17.069,0-30.905,13.836-30.905,30.905s0,118.471,0,118.471l61.811-30.905   c0,0,0-70.496,0-87.565S200.956,92.716,183.887,92.716z" data-original="#FFFFFF"/>
	<path style="fill:#FFFFFF;" d="M328.113,92.716c-17.069,0-30.905,13.836-30.905,30.905s0,87.565,0,87.565l61.811,30.905   c0,0,0-101.402,0-118.471S345.182,92.716,328.113,92.716z" data-original="#FFFFFF"/>
</g><g>
	<path style="fill:#FF947E;" d="M183.887,234.366c-4.267,0-7.726-3.459-7.726-7.726V123.622c0-4.267,3.459-7.726,7.726-7.726   c4.267,0,7.726,3.459,7.726,7.726V226.64C191.614,230.907,188.154,234.366,183.887,234.366z" data-original="#FF947E"/>
	<path style="fill:#FF947E;" d="M328.113,234.366c-4.268,0-7.726-3.459-7.726-7.726V123.622c0-4.267,3.458-7.726,7.726-7.726   c4.268,0,7.726,3.459,7.726,7.726V226.64C335.839,230.907,332.381,234.366,328.113,234.366z" data-original="#FF947E"/>
</g><circle style="fill:#002642;" cx="194.189" cy="30.905" r="7.726" data-original="#002642"/><path style="fill:#197AC2" d="M286.905,38.632h-61.811c-4.267,0-7.726-3.459-7.726-7.726s3.459-7.726,7.726-7.726h61.811  c4.268,0,7.726,3.459,7.726,7.726S291.173,38.632,286.905,38.632z" data-original="#197AC2" class="active-path"/><path style="fill:#FFFFFF;" d="M256,288.451c-25.603,0-46.358,20.755-46.358,46.358c0,14.224,11.531,25.755,25.755,25.755  c8.426,0,15.905-4.047,20.604-10.302c4.699,6.255,12.178,10.302,20.604,10.302c14.224,0,25.755-11.531,25.755-25.755  C302.358,309.206,281.603,288.451,256,288.451z" data-original="#FFFFFF"/><circle style="fill:#FF4C28;" cx="256" cy="319.356" r="7.726" data-original="#FF4C28"/></g> </svg>
